<?xml version="1.0" encoding="utf-8"?>
<svg width="1584px" height="389px" xmlns="http://www.w3.org/2000/svg">
  <path fill-rule="evenodd" stroke="rgb(0, 0, 0)" stroke-width="0px" stroke-linecap="butt" stroke-linejoin="miter" fill="rgb(88, 204, 307)" d="M 327.999 209.999 C 295.336 209.999 262.663 209.999 229.999 209.999 C 229.999 192.247 229.999 174.489 229.999 156.736 C 212.668 156.736 195.331 156.736 177.999 156.736 C 177.999 124.245 177.999 91.744 177.999 59.253 C 195.331 59.253 212.668 59.253 229.999 59.253 C 229.999 42.17 229.999 25.82 229.999 7.999 C 262.663 7.999 295.336 7.999 327.999 7.999 C 327.999 25.82 327.999 42.17 327.999 59.253 C 345.331 59.253 362.668 59.253 379.999 59.253 C 379.999 91.744 379.999 124.245 379.999 156.736 C 362.668 156.736 345.331 156.736 327.999 156.736 C 327.999 174.489 327.999 192.247 327.999 209.999 Z"/>
  <path fill-rule="evenodd" stroke="rgb(0, 0, 0)" stroke-width="0px" stroke-linecap="butt" stroke-linejoin="miter" fill="rgb(18, 97, 160)" d="M 229.36 221.767 C 262.343 221.767 295.661 221.767 328.968 221.767 C 331.301 362.679 161.3 441.267 54.154 346.589 C -52.824 252.59 6.271 57.601 165.79 58.999 C 165.79 91.284 165.79 123.577 165.79 155.861 C 98.721 157.58 81.634 240.172 127.104 276.689 C 173.18 313.691 230.183 265.88 229.36 221.767 Z"/>
</svg>