<?xml version="1.0" encoding="utf-8"?>
<svg viewBox="0 0 500 500" xmlns="http://www.w3.org/2000/svg">
  <path fill-rule="evenodd" stroke="rgb(0, 0, 0)" stroke-width="0px" stroke-linecap="butt" stroke-linejoin="miter" fill="rgb(88, 204, 307)" d="M 398.472 250.676 C 365.809 250.676 333.136 250.676 300.472 250.676 C 300.472 232.924 300.472 215.166 300.472 197.413 C 283.141 197.413 265.804 197.413 248.472 197.413 C 248.472 164.922 248.472 132.421 248.472 99.93 C 265.804 99.93 283.141 99.93 300.472 99.93 C 300.472 82.847 300.472 66.497 300.472 48.676 C 333.136 48.676 365.809 48.676 398.472 48.676 C 398.472 66.497 398.472 82.847 398.472 99.93 C 415.804 99.93 433.141 99.93 450.472 99.93 C 450.472 132.421 450.472 164.922 450.472 197.413 C 433.141 197.413 415.804 197.413 398.472 197.413 C 398.472 215.166 398.472 232.924 398.472 250.676 Z"/>
  <path fill-rule="evenodd" stroke="rgb(0, 0, 0)" stroke-width="0px" stroke-linecap="butt" stroke-linejoin="miter" fill="rgb(18, 97, 160)" d="M 299.833 262.444 C 332.816 262.444 366.134 262.444 399.441 262.444 C 401.774 403.356 231.773 481.944 124.627 387.266 C 17.649 293.267 76.744 98.278 236.263 99.676 C 236.263 131.961 236.263 164.254 236.263 196.538 C 169.194 198.257 152.107 280.849 197.577 317.366 C 243.653 354.368 300.656 306.557 299.833 262.444 Z"/>
</svg>